<svg xmlns="http://www.w3.org/2000/svg" viewBox="0 0 107.75 87.74"><defs><style>.a{fill:#83d0d1;}</style></defs><title>foot</title><path class="a" d="M11.88,87.59A11.37,11.37,0,0,1,.19,77.89c-.5-2.74,0-4.85,1.37-6.47C3.92,68.56,8.4,68.56,12,68.56c1,0,2.49-1,3.86-2,2-1.37,4.35-2.86,7-2.86H23a5.12,5.12,0,0,0,2.61-.62,53.76,53.76,0,0,0,10.2-6c5-3.48,10.32-7.46,16.16-12.31a14.33,14.33,0,0,0,5.23-8.09C57.89,33.36,59,14.71,59,11a2.79,2.79,0,0,1,2.74-2.86h0a3,3,0,0,1,2.86,2.73c.12,3.74-1.12,23-2,27a20.25,20.25,0,0,1-7.21,11.32c-6,5-11.45,9.08-16.54,12.68a59.6,59.6,0,0,1-11.2,6.47,13.53,13.53,0,0,1-4.85,1h0c-1,0-2.48,1-3.85,2-2,1.36-4.36,2.86-7,2.86-1.61,0-5.47,0-6.09.87a3.15,3.15,0,0,0-.13,1.86c.5,3.36,3.11,5.22,6.72,5a21.32,21.32,0,0,0,6.34-1.25,16.89,16.89,0,0,1,10-.25,54,54,0,0,0,11.82,1.5c3.73,0,7.58,0,11.44-1.25,1.24-.37,2.49-.87,3.73-1.37a26.19,26.19,0,0,1,2.86-1,19,19,0,0,1,6.09-1h5.85a14.89,14.89,0,0,1,7.83,1.87,24.1,24.1,0,0,0,4.73,2c4.23,1.24,7.83,1,11.19-.87a15.17,15.17,0,0,0,7.59-14.43c-.5-4-1.87-6.84-3.61-10.32a17.36,17.36,0,0,1-1-2.11c-1-2-1.12-5.35-1.25-8.46,0-.87-.12-1.74-.12-2.36-.13-2.37-.37-30.22,1.12-40.17A2.91,2.91,0,0,1,100.3,0a2.83,2.83,0,0,1,2.36,3.24c-1.36,9.08-1.24,35.32-1.12,39.05,0,.62.13,1.49.13,2.49.12,2.11.25,5.22.75,6.21a16.8,16.8,0,0,1,1,2.12c1.87,3.73,3.61,7.34,4.23,12.19a21,21,0,0,1-10.32,20,19.19,19.19,0,0,1-15.55,1.37,38.07,38.07,0,0,1-5.84-2.49A10.09,10.09,0,0,0,71.08,83c-1.5.12-2.86,0-4.23,0H65a14.89,14.89,0,0,0-4.23.62c-.87.37-1.86.62-2.73,1-1.37.5-2.61,1-4,1.37a42.86,42.86,0,0,1-13.31,1.62A60.36,60.36,0,0,1,27.55,86a11.26,11.26,0,0,0-6.72.12A27.52,27.52,0,0,1,13,87.59Z"/><path class="a" d="M81.27,57.74a2,2,0,0,1-2-1.74A2,2,0,0,1,81,53.76a5.84,5.84,0,0,0,5.35-6.09,2.06,2.06,0,0,1,1.87-2.12,2,2,0,0,1,2.11,1.87c.13,3.23-1.49,9.45-8.95,10.32Z"/></svg>