<svg xmlns="http://www.w3.org/2000/svg" viewBox="0 0 56.01 103.05"><defs><style>.a{fill:#83d0d1;}</style></defs><title>heart</title><path class="a" d="M10.38,31.78a10.8,10.8,0,0,1,2.27.9c-.51-5.29-.65-17.6,8.81-20.16a19.72,19.72,0,0,1,3-.54A18.34,18.34,0,0,1,24,7.51a19.3,19.3,0,0,0-5.11.7c-1.58.37-2.83.66-3.19-.63s.28-4.52.72-6.37a16.76,16.76,0,0,0-5-1.21A64.8,64.8,0,0,0,8.22,31.54,11,11,0,0,1,10.38,31.78Z"/><path class="a" d="M7,53.19a61.55,61.55,0,0,1,6.63-7.6l.76-.76c.87-.9,1.79-1.81,2.73-2.7a5.36,5.36,0,0,0,1.4-2.19c-.38-1.21-6.5-5.36-8.61-5.79A9.18,9.18,0,0,0,8.24,34c-1.77,0-3.62.74-5.25,3.64C.4,42.22-1.2,55.32,1.13,57.23c.74.61,2.3-.55,3.17-1.29A29.46,29.46,0,0,0,7,53.19Z"/><path class="a" d="M53.47,36.45a12.15,12.15,0,0,0-2.6-1.19A7.38,7.38,0,0,1,49,39.8c1.43.33,2.59.56,3.25.69A8.67,8.67,0,0,0,53.47,36.45Z"/><path class="a" d="M24.16,5.1a19.58,19.58,0,0,1,.37-2.39,11.4,11.4,0,0,0-5.7-1.07,33.3,33.3,0,0,0-.78,4.3l.32-.08A21.61,21.61,0,0,1,24.16,5.1Z"/><path class="a" d="M15.27,34.14c2.31,1.43,4.63,3.26,5.4,4.74a79.38,79.38,0,0,1,6.48-5.27c-.24-1.62-.51-5,1.18-6.79a3.73,3.73,0,0,1,3.56-1,5.26,5.26,0,0,0,4.79-1.19A3.59,3.59,0,0,0,38,22.43,16.49,16.49,0,0,0,35.61,19a43.16,43.16,0,0,1,2-9.43L35.15,8.46c-.68,1.58-1.67,5.67-2.06,6.21s-1.7.42-1.54-.8a42.25,42.25,0,0,1,1.88-7.82l-3.21-.82c-1.7,3.59-2.19,9.25-2.86,9.15a12.69,12.69,0,0,0-5.28.48C13.32,17.23,14.86,31.27,15.27,34.14Zm7.89-16.5a1.22,1.22,0,0,1-1,1.39c-1.34.22-3.15,3.74-3.07,9.82a1.19,1.19,0,0,1-1.19,1.21h0a1.2,1.2,0,0,1-1.21-1.18c-.09-6.82,2-11.73,5.11-12.24A1.22,1.22,0,0,1,23.16,17.64Z"/><path class="a" d="M48.29,56.6l-.36-.06a14.05,14.05,0,0,1-5.88-3.07c.1,1.79.19,4.15.17,6.72a46.47,46.47,0,0,1,12,10.65,1.2,1.2,0,0,1-1,1.94,1.18,1.18,0,0,1-1-.47s-.94-1.21-2.46-2.82A11.84,11.84,0,0,0,50.74,76a1.21,1.21,0,0,1-2.1,1.21c-.09-.16-2.16-3.82-1-9.85A39.73,39.73,0,0,0,42.16,63a38.39,38.39,0,0,1-1.84,11.44,7.14,7.14,0,0,0,0,4.43l0,.05s0,.06,0,.1c1.23,4,4.85,7.57,4.91,7.62a1.21,1.21,0,0,1,0,1.71,1.25,1.25,0,0,1-.87.37,1.21,1.21,0,0,1-.84-.34,25.68,25.68,0,0,1-2.68-3.16,14.51,14.51,0,0,1-1.87,6.17,1.22,1.22,0,0,1-1,.55,1.13,1.13,0,0,1-.65-.2A1.2,1.2,0,0,1,37,90.06a13.78,13.78,0,0,0,1-10.53v-.06a9.49,9.49,0,0,1,0-5.89C39.73,69.2,39.9,62,39.76,56.73c-.37.17-.73.33-1.1.48-1.82.77-3.54,1.51-4.66,3.87,1.79,8.86-6.72,17.62-7.09,18a1.21,1.21,0,0,1-1.72-1.7c.07-.06,4.95-5.11,6.31-11-1.58,3-3.36,5.62-5,6.28a1.42,1.42,0,0,1-.45.08,1.21,1.21,0,0,1-.45-2.33c1.07-.43,3.35-3.69,6-10,1.49-3.52,4-4.58,6.08-5.45A12,12,0,0,0,39.65,54c-.08-1.56-.17-2.74-.22-3.31A11.4,11.4,0,0,1,37,44a6.28,6.28,0,0,1,3-5.62,7.13,7.13,0,0,1,4.11-1,1.14,1.14,0,0,1,.52,0l2.84.56a5,5,0,0,0,1-2.43c-6.09-3.91-15.92-4-19.06-3.94a14.17,14.17,0,0,0,.27,2.4A1.27,1.27,0,0,1,29,35.31c-.82.37-5.4,4.33-10.12,8.5-3.39,3-9.15,9.94-10,10.87a22,22,0,0,0-4,8.64,27.2,27.2,0,0,0,8.07,25c8.75,8.28,21.55,14.71,26.73,14.71,5.94,0,10.87-7.25,13.9-20.41C57.33,66.5,52.73,60.25,48.29,56.6ZM16.65,51.92c-.11.09-10.11,9.53-6.24,21.91a1.21,1.21,0,0,1-.79,1.52,1.49,1.49,0,0,1-.36.05,1.21,1.21,0,0,1-1.15-.85c-4.34-13.86,6.44-24,6.9-24.41a1.21,1.21,0,0,1,1.64,1.78Z"/><path class="a" d="M55.48,45.81a6.22,6.22,0,0,0,.11-2.07L52.43,43l-1-.19a21.32,21.32,0,0,1,2.41,6.16A10.55,10.55,0,0,0,56,49a3.3,3.3,0,0,0-.4-2.13A1.2,1.2,0,0,1,55.48,45.81Z"/><path class="a" d="M45.25,40.12a3.33,3.33,0,0,0-1.57-.35,4.76,4.76,0,0,0-2.44.68A3.89,3.89,0,0,0,39.36,44c0,4.86,5.41,9.45,9,10.18,1.82.36,2.93.36,3.3,0,.18-.17.55-.83.11-3.15C51.07,47.15,49.67,42.42,45.25,40.12Z"/></svg>