<svg xmlns="http://www.w3.org/2000/svg" viewBox="0 0 112.66 105.48"><defs><style>.a{fill:#83d0d1;}</style></defs><title>nerve</title><path class="a" d="M37.37,22.64l.09.35a7.29,7.29,0,0,1,.95,2.89,15,15,0,0,0,1.84,3.17,17.32,17.32,0,0,0,5.38,4.48l0,0,.81.44a5.48,5.48,0,0,0,.74-1.47,3.67,3.67,0,0,0,.16-1.64,2.53,2.53,0,0,0-.47-1.19,2.13,2.13,0,0,0-1.06-.79.87.87,0,0,1-.56-1.08.85.85,0,0,1,1.08-.56,3.84,3.84,0,0,1,1.93,1.41,4.34,4.34,0,0,1,.79,2A5,5,0,0,1,49,32.75l.17-.08a15.06,15.06,0,0,1,2.63-1.25c2.17-1.06,4.09-2.31,4.66-4.92a.86.86,0,1,1,1.68.36,7.31,7.31,0,0,1-2.16,3.92,21.68,21.68,0,0,1,3.55.5,16.73,16.73,0,0,0,4.21.46.86.86,0,1,1,.1,1.72A17.68,17.68,0,0,1,59.15,33a11.89,11.89,0,0,0-6.81.08l-1,.48c-.85.4-1.7.8-2.51,1.26.45,0,.92,0,1.38,0,2.32,0,4.71-.07,6.62,2.41a.85.85,0,0,1-.15,1.2.86.86,0,0,1-1.21-.15c-1.39-1.8-3.34-1.77-5.23-1.74a11.68,11.68,0,0,1-3.37-.28,13.14,13.14,0,0,1-1.73,1.5,17,17,0,0,0-2.9,4.48,12.29,12.29,0,0,0-.8,6.91,6.2,6.2,0,0,1,2.86-.63.89.89,0,0,1,.7.38h0l2.62,3.91a2.64,2.64,0,0,1,.52-.12,1.93,1.93,0,0,1,1,.17.86.86,0,0,1,.5.8A1.92,1.92,0,0,1,49.08,55l2.7,4a.84.84,0,0,1,.1.75h0a5,5,0,0,1-1,1.66,4.86,4.86,0,0,1,2.06-.6h0a.85.85,0,0,1,.69.27l8.34,9a.84.84,0,0,1,.22.76A5.37,5.37,0,0,1,61.84,72a5.72,5.72,0,0,1,.9-.43.88.88,0,0,1,.79.09h0l3.9,2.63a2,2,0,0,1,.44-.3,1.93,1.93,0,0,1,1-.23.87.87,0,0,1,.76.52h0a2,2,0,0,1,0,1.51l4,2.71a.83.83,0,0,1,.38.71A4.39,4.39,0,0,1,74,80.33a5.18,5.18,0,0,1,.84-.64.9.9,0,0,1,.77-.09l11.47,4.22a.87.87,0,0,1,.56.59,5.8,5.8,0,0,1,.13,2.09c3.06-.49,5.11-3.4,7.08-6.22,3.2-4.55,6.25-8.89,12.94-4.75a4.55,4.55,0,0,1,.4-.45,1.4,1.4,0,0,1,2.45,1,3.41,3.41,0,0,1-.23,1.34h0l-.13.32h0a3.55,3.55,0,0,1-.79,1.11,1.5,1.5,0,0,1-1.59.37,1.48,1.48,0,0,1-.85-1.39,2.71,2.71,0,0,1,0-.74c-5.47-3.48-8.08.24-10.83,4.15C94,84.43,91.74,87.68,88,88.22l.21.44a3,3,0,0,0,1.45,1.41,2.92,2.92,0,0,0,1.83.06h0A9.77,9.77,0,0,0,95.11,88a6.32,6.32,0,0,1,1.76-1.18c3.39-1.37,5.69-.4,8.06.6a11.65,11.65,0,0,0,4.29,1.19,6.34,6.34,0,0,1,.63-.77,3.15,3.15,0,0,1,.92-.67,1.31,1.31,0,0,1,1.34.05l.16.13a1.72,1.72,0,0,1,.29,1.73,5.6,5.6,0,0,1-.77,1.64,6.34,6.34,0,0,1-.63.77,3.15,3.15,0,0,1-.92.68,1.31,1.31,0,0,1-1.34,0l-.17-.13a1.77,1.77,0,0,1-.3-1.7,14.6,14.6,0,0,1-4.17-1.28c-2-.86-4-1.7-6.74-.59a3.59,3.59,0,0,0-.88.56,6.15,6.15,0,0,1,1.89,2.1c.71,1,1.48,2.18,2.87,2.23a4.09,4.09,0,0,1,.23-.56,3.12,3.12,0,0,1,.65-.94,1.3,1.3,0,0,1,1.28-.38h0a.8.8,0,0,1,.2.07,1.76,1.76,0,0,1,.84,1.54,5.42,5.42,0,0,1-.21,1.8,5.75,5.75,0,0,1-.34.94,3.3,3.3,0,0,1-.65.94,1.31,1.31,0,0,1-1.28.38h0a.89.89,0,0,1-.19-.07,1.74,1.74,0,0,1-.84-1.54,2.22,2.22,0,0,1,0-.45c-2-.13-3-1.62-4-3-.57-.85-1.1-1.63-1.73-1.7a1.27,1.27,0,0,0-.86.28l-.39.22a10.05,10.05,0,0,1-1.3.62,7.27,7.27,0,0,1-.83.27h0l-.11,0a4.59,4.59,0,0,1-2.9-.13,4.23,4.23,0,0,1-1.5-1c.48,3.76,3.15,5.24,5.78,6.7,2,1.12,4,2.22,5.28,4.22l.27-.08h0a1.39,1.39,0,0,1,1.68,2,3.73,3.73,0,0,1-2.32,1.91h0a1.4,1.4,0,0,1-1.69-2,3.64,3.64,0,0,1,.62-.88c-1-1.65-2.85-2.65-4.67-3.67-3.13-1.73-6.29-3.49-6.71-8.27a3.19,3.19,0,0,1-.47.35.85.85,0,0,1-.82.12l-4.54-1.67a2,2,0,0,1-1.26.85h0a.85.85,0,0,1-.86-.31,1.85,1.85,0,0,1-.4-.93,2.37,2.37,0,0,1,0-.53L73,86.82a.84.84,0,0,1-.57-.6,6.1,6.1,0,0,1-.1-2.75,5.86,5.86,0,0,1-2.12,1.46.84.84,0,0,1-.8-.1L59.24,78a.86.86,0,0,1-.38-.69,5.26,5.26,0,0,1,.43-2.49,5.12,5.12,0,0,1-2.14.77.86.86,0,0,1-.76-.27l-3.3-3.54a2,2,0,0,1-1.5.2h0a.86.86,0,0,1-.63-.67,1.88,1.88,0,0,1,.06-1,2.14,2.14,0,0,1,.23-.48L48,66.38h0a.87.87,0,0,1-.21-.76,6.18,6.18,0,0,1,1.35-2.75,6.13,6.13,0,0,1-3.07.84.85.85,0,0,1-.7-.38h0L38.59,53.16a.84.84,0,0,1-.11-.72h0a5.1,5.1,0,0,1,1.05-1.87,13.16,13.16,0,0,0-7.36-1,11.7,11.7,0,0,0-3.52,1.22c-4.62,3.26-5,4.73-4.08,6a12,12,0,0,0,1.32,1.45,11.19,11.19,0,0,1,3,4.25.86.86,0,0,1-1.63.56,9.79,9.79,0,0,0-2.6-3.59,13.54,13.54,0,0,1-1.51-1.68L23,57.58A12,12,0,0,0,23.78,63a17.06,17.06,0,0,1,.93,4.68.85.85,0,0,1-.85.87.86.86,0,0,1-.87-.85,16.26,16.26,0,0,0-.86-4.21c-.71-2.41-1.42-4.82-.52-7.32l-1,.34c-1.74.61-3.54,1.23-4.07,3.07a.85.85,0,0,1-1.06.59.87.87,0,0,1-.6-1.07c.77-2.69,3-3.46,5.17-4.22,1.93-.67,3.79-1.31,3.75-3.69a11,11,0,0,0-2.47-6.14,12.07,12.07,0,0,0-5.05-3.71l0,0a9.47,9.47,0,0,0-1.47-.42,9.68,9.68,0,0,1-1.28,1A12.71,12.71,0,0,0,12,44.47a1.51,1.51,0,0,0,.8,1.75,3.7,3.7,0,0,1,1.75,4.27.87.87,0,0,1-1.7-.33,2.25,2.25,0,0,0-1.1-2.57,8.7,8.7,0,0,1-.8-.65c-1.07,2.61-2.24,5.15-5.43,7a.85.85,0,0,1-1.17-.31.86.86,0,0,1,.31-1.18C7.5,50.78,8.5,48.31,9.52,45.8c.23-.56.46-1.13.71-1.69a5.93,5.93,0,0,1,.26-.73c-.88.33-1.78.62-2.66.9-3.21,1-6.16,2-6.11,4.72A.86.86,0,0,1,0,49c-.08-4,3.46-5.16,7.31-6.39,1.06-.34,2.16-.69,3.18-1.11-2.93.8-5.77,1.4-7.69-2.11a.86.86,0,1,1,1.51-.83c1.35,2.48,3.72,1.83,6.12,1.17a16.27,16.27,0,0,1,3.49-.71,12.77,12.77,0,0,1,2.52-1.55A11.87,11.87,0,0,0,19.62,33a10.91,10.91,0,0,0,.18-7.13c-5,1.15-6.77-1.08-8.63-3.36C9.9,21,8.61,19.39,6,19.33a.86.86,0,0,1-.84-.88A.85.85,0,0,1,6,17.61c3.46.07,5,2,6.52,3.83,1.15,1.4,2.27,2.77,4.47,3a17.59,17.59,0,0,1-4.43-6c-1.69-3.17-3.46-6.5-9.15-8.73A.86.86,0,0,1,4,8.06a16.36,16.36,0,0,1,9,7.69,29.3,29.3,0,0,1,.28-3.14c.27-2.27.54-4.44-.64-6.36a.86.86,0,0,1,1.47-.9c1.5,2.44,1.2,4.89.88,7.47-.34,2.8-.71,5.78,1.59,8.85A10.76,10.76,0,0,0,19.43,24a16.83,16.83,0,0,0-1.33-2.71,12.94,12.94,0,0,1-1.55-3.45c-.35-1.76.28-3.14,3.14-3.7A.86.86,0,1,1,20,15.83c-1.55.31-1.92.93-1.77,1.68a11.75,11.75,0,0,0,1.35,2.94,13.69,13.69,0,0,1,1.64,3.66,29.28,29.28,0,0,0,6.89.46,15.18,15.18,0,0,0,6.49-2.09.71.71,0,0,1-.1-.14,17.32,17.32,0,0,0-2.77-1.65c-2-1-4-2.05-5-4.25a.86.86,0,0,1,1.56-.74c.8,1.67,2.53,2.56,4.27,3.46l.54.27c-1-3-.26-5.64.65-8.19a.08.08,0,0,1,0-.05v0l0-.14c.77-2.29-1.69-3.48-4-4.61a14.08,14.08,0,0,1-3.61-2.19.86.86,0,0,1,0-1.22.87.87,0,0,1,1.22,0,12.72,12.72,0,0,0,3.16,1.87,12.84,12.84,0,0,1,4.4,2.88,8.46,8.46,0,0,0-.53-6.48A.86.86,0,0,1,34.76.1a.85.85,0,0,1,1.16.37c2.08,4.05.91,7.26-.26,10.5-.06.15-.12.31-.17.47s-.09.25-.14.37h0c-1,2.84-1.74,5.74.44,9.31l.32.26a9.05,9.05,0,0,0,1.07-2.1,7.32,7.32,0,0,1,2.44-3.62.86.86,0,0,1,1.21.19.87.87,0,0,1-.19,1.21,5.86,5.86,0,0,0-1.85,2.86,11.05,11.05,0,0,1-1.42,2.72Zm42.4,64.84.14,0,4.67,1.72a4.24,4.24,0,0,0,1.16-1.75A4.79,4.79,0,0,0,86,85.28L75.4,81.38a3.75,3.75,0,0,0-1.2,1.7A4.37,4.37,0,0,0,74,85.35l5.79,2.13ZM68.18,76.86l-.09-.06L63,73.34a4.51,4.51,0,0,0-1.7,1.51,3.8,3.8,0,0,0-.68,2L70,83.14a4.79,4.79,0,0,0,1.63-1.52,4.3,4.3,0,0,0,.74-2l-4.15-2.8ZM53.85,70.07l.08.09,3.41,3.65a4.25,4.25,0,0,0,1.82-1,4.89,4.89,0,0,0,1.26-1.85L52.7,62.65a3.74,3.74,0,0,0-1.85,1,4.65,4.65,0,0,0-1.22,1.93l4.22,4.53ZM47.32,55.5a.57.57,0,0,1-.08-.13L43.8,50.25a4.55,4.55,0,0,0-2.16.75,3.89,3.89,0,0,0-1.37,1.57l6.3,9.4a4.66,4.66,0,0,0,2.09-.8,4.19,4.19,0,0,0,1.43-1.54L47.32,55.5ZM16.63,39.59l.34.19A13.7,13.7,0,0,1,22.69,44a12.78,12.78,0,0,1,2.83,6.78,14.13,14.13,0,0,1,6.36-2.93,14.68,14.68,0,0,1,7.74.9,13.81,13.81,0,0,1,1-7.18,18.11,18.11,0,0,1,3.22-5l.08-.09c.36-.4.73-.8,1.12-1.19L44.69,35a18.88,18.88,0,0,1-5.81-4.89,16,16,0,0,1-2.08-3.61.36.36,0,0,1,0-.09A23,23,0,0,1,36,24l-.06,0a9.18,9.18,0,0,1-2.58,1.09,16.55,16.55,0,0,1-5,1.22,28.84,28.84,0,0,1-6.68-.38,12.46,12.46,0,0,1-.37,7.72,13.64,13.64,0,0,1-3.7,5.22l-.08.07c-.26.23-.53.45-.82.67Zm14.1-4.9a1.49,1.49,0,0,1,1.06.44,1.45,1.45,0,0,1,.44,1.06,1.51,1.51,0,0,1-.44,1.06,1.49,1.49,0,0,1-1.06.44,1.5,1.5,0,0,1-1.5-1.5,1.49,1.49,0,0,1,.44-1.06A1.46,1.46,0,0,1,30.73,34.69Zm.16,1.65-.16-.15v.21a.44.44,0,0,1,.16-.06Zm1.17-2.65h0a7.88,7.88,0,0,0-3.93-1.21,2.44,2.44,0,0,0-2.2.92,2.41,2.41,0,0,0,.23,2.37,7.77,7.77,0,0,0,2.92,2.89A7.93,7.93,0,0,0,33,39.88,2.48,2.48,0,0,0,35.22,39,2.48,2.48,0,0,0,35,36.58,8,8,0,0,0,32.06,33.69Zm1-1.41a9.67,9.67,0,0,1,3.46,3.49,4.1,4.1,0,0,1,.19,4.08A4.08,4.08,0,0,1,33,41.6a9.63,9.63,0,0,1-4.81-1.45,9.54,9.54,0,0,1-3.56-3.56,4.08,4.08,0,0,1-.19-4.08,4.06,4.06,0,0,1,3.68-1.75A9.69,9.69,0,0,1,33,32.21l.1.06Z"/></svg>